<svg xmlns="http://www.w3.org/2000/svg" version="1.1" xmlns:xlink="http://www.w3.org/1999/xlink" xmlns:svgjs="http://svgjs.dev/svgjs" width="1000" height="1000" viewBox="0 0 1000 1000"><rect width="1000" height="1000" fill="#051726"></rect><g transform="matrix(0.7,0,0,0.7,149.575759020852,282.1265587044535)"><svg viewBox="0 0 396 247" data-background-color="#051726" preserveAspectRatio="xMidYMid meet" height="623" width="1000" xmlns="http://www.w3.org/2000/svg" xmlns:xlink="http://www.w3.org/1999/xlink"><g id="tight-bounds" transform="matrix(1,0,0,1,0.23999924113422821,-0.09999999999999432)"><svg viewBox="0 0 395.52 247.2" height="247.2" width="395.52"><g><svg viewBox="0 0 395.52 247.2" height="247.2" width="395.52"><g transform="matrix(1,0,0,1,0,76.55520946272281)"><svg viewBox="0 0 395.52 94.08958107455436" height="94.08958107455436" width="395.52"><g><svg viewBox="0 0 395.52 94.08958107455436" height="94.08958107455436" width="395.52"><g><svg viewBox="0 0 395.52 94.08958107455436" height="94.08958107455436" width="395.52"><g><svg viewBox="0 0 395.52 94.08958107455436" height="94.08958107455436" width="395.52"><g id="textblocktransform"><svg viewBox="0 0 395.52 94.08958107455436" height="94.08958107455436" width="395.52" id="textblock"><g><svg viewBox="0 0 395.52 50.74742409402546" height="50.74742409402546" width="395.52"><g transform="matrix(1,0,0,1,0,0)"><svg width="395.52" viewBox="0.75 -39.04999923706055 306.2799987792969 39.29999923706055" height="50.74742409402546" data-palette-color="#ffffff"><path d="M16.35 0L16.35 0Q15.55 0 14.98-0.58 14.4-1.15 14.4-1.95L14.4-1.95 14.4-39.05 18.3-39.05 18.3-1.95Q18.3-1.15 17.75-0.58 17.2 0 16.35 0ZM30.2-35.5L2.55-35.5Q1.75-35.5 1.25-36 0.75-36.5 0.75-37.25L0.75-37.25Q0.75-38.05 1.25-38.55 1.75-39.05 2.55-39.05L2.55-39.05 30.2-39.05Q31-39.05 31.5-38.55 32-38.05 32-37.25L32-37.25Q32-36.5 31.5-36 31-35.5 30.2-35.5L30.2-35.5ZM42.2 0.25L42.2 0.25Q38.2 0.25 35.05-1.55 31.9-3.35 30.1-6.5 28.3-9.65 28.3-13.65L28.3-13.65Q28.3-17.7 30.1-20.85 31.9-24 35.05-25.8 38.2-27.6 42.2-27.6L42.2-27.6Q46.2-27.6 49.32-25.8 52.45-24 54.25-20.85 56.05-17.7 56.1-13.65L56.1-13.65Q56.1-9.65 54.27-6.5 52.45-3.35 49.32-1.55 46.2 0.25 42.2 0.25ZM42.2-3.25L42.2-3.25Q45.1-3.25 47.4-4.6 49.7-5.95 51-8.3 52.3-10.65 52.3-13.65L52.3-13.65Q52.3-16.65 51-19.03 49.7-21.4 47.4-22.75 45.1-24.1 42.2-24.1L42.2-24.1Q39.3-24.1 37-22.75 34.7-21.4 33.37-19.03 32.05-16.65 32.05-13.65L32.05-13.65Q32.05-10.65 33.37-8.3 34.7-5.95 37-4.6 39.3-3.25 42.2-3.25ZM75.05 0L66.05 0Q65.19 0 64.64-0.55 64.09-1.1 64.09-1.95L64.09-1.95 64.09-37.1Q64.09-37.95 64.64-38.5 65.19-39.05 66.05-39.05L66.05-39.05 75.05-39.05Q79.34-39.05 82.92-37.63 86.5-36.2 89.09-33.58 91.69-30.95 93.12-27.4 94.55-23.85 94.55-19.55L94.55-19.55Q94.55-15.25 93.12-11.68 91.69-8.1 89.09-5.48 86.5-2.85 82.92-1.43 79.34 0 75.05 0L75.05 0ZM68-35.55L68-3.5 75.05-3.5Q79.64-3.5 83.17-5.58 86.69-7.65 88.69-11.28 90.69-14.9 90.69-19.55L90.69-19.55Q90.69-24.2 88.69-27.83 86.69-31.45 83.17-33.5 79.64-35.55 75.05-35.55L75.05-35.55 68-35.55ZM114.54 0.25L114.54 0.25Q110.54 0.25 107.39-1.55 104.24-3.35 102.44-6.5 100.64-9.65 100.64-13.65L100.64-13.65Q100.64-17.7 102.44-20.85 104.24-24 107.39-25.8 110.54-27.6 114.54-27.6L114.54-27.6Q118.54-27.6 121.67-25.8 124.79-24 126.59-20.85 128.39-17.7 128.44-13.65L128.44-13.65Q128.44-9.65 126.62-6.5 124.79-3.35 121.67-1.55 118.54 0.25 114.54 0.25ZM114.54-3.25L114.54-3.25Q117.44-3.25 119.74-4.6 122.04-5.95 123.34-8.3 124.64-10.65 124.64-13.65L124.64-13.65Q124.64-16.65 123.34-19.03 122.04-21.4 119.74-22.75 117.44-24.1 114.54-24.1L114.54-24.1Q111.64-24.1 109.34-22.75 107.04-21.4 105.72-19.03 104.39-16.65 104.39-13.65L104.39-13.65Q104.39-10.65 105.72-8.3 107.04-5.95 109.34-4.6 111.64-3.25 114.54-3.25ZM138.39 0L138.39 0Q137.54 0 136.99-0.55 136.44-1.1 136.44-1.95L136.44-1.95 136.44-37.1Q136.44-37.95 136.99-38.5 137.54-39.05 138.39-39.05L138.39-39.05 148.39-39.05Q152.09-39.05 154.94-37.43 157.79-35.8 159.39-32.95 160.99-30.1 160.99-26.35L160.99-26.35Q160.99-22.7 159.39-19.88 157.79-17.05 154.94-15.43 152.09-13.8 148.39-13.8L148.39-13.8 140.34-13.8 140.34-1.95Q140.34-1.1 139.79-0.55 139.24 0 138.39 0ZM140.34-35.3L140.34-17.55 148.39-17.55Q150.94-17.55 152.94-18.68 154.94-19.8 156.06-21.8 157.19-23.8 157.19-26.35L157.19-26.35Q157.19-29 156.06-31 154.94-33 152.94-34.15 150.94-35.3 148.39-35.3L148.39-35.3 140.34-35.3ZM173.09 0L172.44 0Q170.44 0 168.86-1.1 167.29-2.2 166.41-4.15 165.54-6.1 165.54-8.65L165.54-8.65 165.54-37.15Q165.54-38 166.06-38.53 166.59-39.05 167.44-39.05L167.44-39.05Q168.29-39.05 168.81-38.53 169.34-38 169.34-37.15L169.34-37.15 169.34-8.65Q169.34-6.5 170.21-5.15 171.09-3.8 172.44-3.8L172.44-3.8 173.69-3.8Q174.44-3.8 174.89-3.28 175.34-2.75 175.34-1.9L175.34-1.9Q175.34-1.05 174.71-0.53 174.09 0 173.09 0L173.09 0ZM191.19 0.25L191.19 0.25Q187.33 0.25 184.28-1.58 181.23-3.4 179.46-6.55 177.69-9.7 177.69-13.65L177.69-13.65Q177.69-17.65 179.51-20.8 181.33-23.95 184.48-25.78 187.63-27.6 191.58-27.6L191.58-27.6Q195.53-27.6 198.66-25.78 201.78-23.95 203.61-20.8 205.44-17.65 205.48-13.65L205.48-13.65 203.94-12.45Q203.94-8.85 202.26-5.98 200.58-3.1 197.71-1.43 194.83 0.25 191.19 0.25ZM191.58-3.25L191.58-3.25Q194.48-3.25 196.76-4.6 199.03-5.95 200.36-8.33 201.69-10.7 201.69-13.65L201.69-13.65Q201.69-16.65 200.36-19 199.03-21.35 196.76-22.73 194.48-24.1 191.58-24.1L191.58-24.1Q188.73-24.1 186.44-22.73 184.13-21.35 182.78-19 181.44-16.65 181.44-13.65L181.44-13.65Q181.44-10.7 182.78-8.33 184.13-5.95 186.44-4.6 188.73-3.25 191.58-3.25ZM203.53 0L203.53 0Q202.69 0 202.13-0.53 201.58-1.05 201.58-1.9L201.58-1.9 201.58-10.45 202.53-14.4 205.48-13.65 205.48-1.9Q205.48-1.05 204.94-0.53 204.38 0 203.53 0ZM236.43 0L236.43 0Q235.58 0 235.03-0.55 234.48-1.1 234.48-1.9L234.48-1.9 234.48-14.9Q234.48-18 233.31-20 232.13-22 230.11-23 228.08-24 225.53-24L225.53-24Q223.08-24 221.11-23.05 219.13-22.1 217.98-20.45 216.83-18.8 216.83-16.7L216.83-16.7 214.08-16.7Q214.18-19.85 215.78-22.33 217.38-24.8 220.03-26.23 222.68-27.65 225.93-27.65L225.93-27.65Q229.48-27.65 232.28-26.18 235.08-24.7 236.71-21.85 238.33-19 238.33-14.9L238.33-14.9 238.33-1.9Q238.33-1.1 237.78-0.55 237.23 0 236.43 0ZM214.93 0L214.93 0Q214.03 0 213.51-0.53 212.98-1.05 212.98-1.9L212.98-1.9 212.98-25.4Q212.98-26.3 213.51-26.83 214.03-27.35 214.93-27.35L214.93-27.35Q215.78-27.35 216.31-26.83 216.83-26.3 216.83-25.4L216.83-25.4 216.83-1.9Q216.83-1.05 216.31-0.53 215.78 0 214.93 0ZM270.28 0L270.28 0Q269.43 0 268.88-0.55 268.33-1.1 268.33-1.9L268.33-1.9 268.33-14.9Q268.33-18 267.15-20 265.98-22 263.95-23 261.93-24 259.38-24L259.38-24Q256.93-24 254.95-23.05 252.98-22.1 251.83-20.45 250.68-18.8 250.68-16.7L250.68-16.7 247.93-16.7Q248.03-19.85 249.63-22.33 251.23-24.8 253.88-26.23 256.53-27.65 259.78-27.65L259.78-27.65Q263.33-27.65 266.13-26.18 268.93-24.7 270.56-21.85 272.18-19 272.18-14.9L272.18-14.9 272.18-1.9Q272.18-1.1 271.63-0.55 271.08 0 270.28 0ZM248.78 0L248.78 0Q247.88 0 247.35-0.53 246.83-1.05 246.83-1.9L246.83-1.9 246.83-25.4Q246.83-26.3 247.35-26.83 247.88-27.35 248.78-27.35L248.78-27.35Q249.63-27.35 250.15-26.83 250.68-26.3 250.68-25.4L250.68-25.4 250.68-1.9Q250.68-1.05 250.15-0.53 249.63 0 248.78 0ZM292.73 0.25L292.73 0.25Q288.88 0.25 285.83-1.58 282.78-3.4 281-6.55 279.23-9.7 279.23-13.65L279.23-13.65Q279.23-17.65 281.05-20.8 282.88-23.95 286.03-25.78 289.18-27.6 293.13-27.6L293.13-27.6Q297.08-27.6 300.2-25.78 303.33-23.95 305.15-20.8 306.98-17.65 307.03-13.65L307.03-13.65 305.48-12.45Q305.48-8.85 303.8-5.98 302.13-3.1 299.25-1.43 296.38 0.25 292.73 0.25ZM293.13-3.25L293.13-3.25Q296.03-3.25 298.3-4.6 300.58-5.95 301.9-8.33 303.23-10.7 303.23-13.65L303.23-13.65Q303.23-16.65 301.9-19 300.58-21.35 298.3-22.73 296.03-24.1 293.13-24.1L293.13-24.1Q290.28-24.1 287.98-22.73 285.68-21.35 284.33-19 282.98-16.65 282.98-13.65L282.98-13.65Q282.98-10.7 284.33-8.33 285.68-5.95 287.98-4.6 290.28-3.25 293.13-3.25ZM305.08 0L305.08 0Q304.23 0 303.68-0.53 303.13-1.05 303.13-1.9L303.13-1.9 303.13-10.45 304.08-14.4 307.03-13.65 307.03-1.9Q307.03-1.05 306.48-0.53 305.93 0 305.08 0Z" opacity="1" transform="matrix(1,0,0,1,0,0)" fill="#ffffff" class="undefined-text-0" data-fill-palette-color="primary" id="text-0"></path></svg></g></svg></g><g transform="matrix(1,0,0,1,0,62.72767298444661)"><svg viewBox="0 0 395.52 31.36190809010774" height="31.36190809010774" width="395.52"><g transform="matrix(1,0,0,1,0,0)"><svg width="395.52" viewBox="2.4000000953674316 -37.599998474121094 643.1900024414062 51" height="31.36190809010774" data-palette-color="#81ffd9"><path d="M19.7 0.35Q14.85 0.35 10.9-1.93 6.95-4.2 4.67-8.28 2.4-12.35 2.4-17.5L2.4-17.5Q2.4-22.65 4.67-26.73 6.95-30.8 10.9-33.08 14.85-35.35 19.7-35.35L19.7-35.35Q24.6-35.35 28.55-33.08 32.5-30.8 34.75-26.73 37-22.65 37-17.5L37-17.5Q37-12.35 34.75-8.28 32.5-4.2 28.55-1.93 24.6 0.35 19.7 0.35L19.7 0.35ZM19.7-2.7Q23.6-2.7 26.7-4.5 29.8-6.3 31.6-9.68 33.4-13.05 33.4-17.5L33.4-17.5Q33.4-21.95 31.6-25.3 29.8-28.65 26.7-30.45 23.6-32.25 19.7-32.25L19.7-32.25Q15.8-32.25 12.7-30.45 9.6-28.65 7.8-25.3 6-21.95 6-17.5L6-17.5Q6-13.05 7.8-9.68 9.6-6.3 12.7-4.5 15.8-2.7 19.7-2.7L19.7-2.7ZM49.54-22.45Q50.69-25 53.07-26.4 55.44-27.8 58.89-27.8L58.89-27.8 58.89-24.15 57.94-24.15Q54.14-24.15 51.84-22.1 49.54-20.05 49.54-15.25L49.54-15.25 49.54 0 46.04 0 46.04-27.3 49.54-27.3 49.54-22.45ZM78.24-27.7Q82.09-27.7 84.94-25.9 87.79-24.1 89.04-21.35L89.04-21.35 89.04-27.3 92.54-27.3 92.54 0.7Q92.54 4.45 90.91 7.35 89.29 10.25 86.39 11.83 83.49 13.4 79.79 13.4L79.79 13.4Q74.54 13.4 71.06 10.9 67.59 8.4 66.74 4.1L66.74 4.1 70.19 4.1Q71.09 6.95 73.61 8.65 76.14 10.35 79.79 10.35L79.79 10.35Q82.44 10.35 84.54 9.22 86.64 8.1 87.84 5.9 89.04 3.7 89.04 0.7L89.04 0.7 89.04-6.05Q87.74-3.25 84.91-1.43 82.09 0.4 78.24 0.4L78.24 0.4Q74.49 0.4 71.51-1.35 68.54-3.1 66.86-6.3 65.19-9.5 65.19-13.7L65.19-13.7Q65.19-17.9 66.86-21.08 68.54-24.25 71.51-25.98 74.49-27.7 78.24-27.7L78.24-27.7ZM89.04-13.65Q89.04-16.95 87.69-19.45 86.34-21.95 84.01-23.3 81.69-24.65 78.89-24.65L78.89-24.65Q75.99-24.65 73.69-23.35 71.39-22.05 70.06-19.58 68.74-17.1 68.74-13.7L68.74-13.7Q68.74-10.35 70.06-7.83 71.39-5.3 73.69-3.98 75.99-2.65 78.89-2.65L78.89-2.65Q81.69-2.65 84.01-4 86.34-5.35 87.69-7.85 89.04-10.35 89.04-13.65L89.04-13.65ZM101.58-13.7Q101.58-17.9 103.25-21.08 104.93-24.25 107.9-25.98 110.88-27.7 114.63-27.7L114.63-27.7Q118.53-27.7 121.35-25.9 124.18-24.1 125.43-21.3L125.43-21.3 125.43-27.3 128.93-27.3 128.93 0 125.43 0 125.43-6.05Q124.13-3.25 121.3-1.43 118.48 0.4 114.58 0.4L114.58 0.4Q110.88 0.4 107.9-1.35 104.93-3.1 103.25-6.3 101.58-9.5 101.58-13.7L101.58-13.7ZM125.43-13.65Q125.43-16.95 124.08-19.45 122.73-21.95 120.4-23.3 118.08-24.65 115.28-24.65L115.28-24.65Q112.38-24.65 110.08-23.35 107.78-22.05 106.45-19.58 105.13-17.1 105.13-13.7L105.13-13.7Q105.13-10.35 106.45-7.83 107.78-5.3 110.08-3.98 112.38-2.65 115.28-2.65L115.28-2.65Q118.08-2.65 120.4-4 122.73-5.35 124.08-7.85 125.43-10.35 125.43-13.65L125.43-13.65ZM152.37-27.8Q157.27-27.8 160.37-24.78 163.47-21.75 163.47-16L163.47-16 163.47 0 160.02 0 160.02-15.6Q160.02-20.05 157.8-22.4 155.57-24.75 151.72-24.75L151.72-24.75Q147.77-24.75 145.42-22.25 143.07-19.75 143.07-14.9L143.07-14.9 143.07 0 139.57 0 139.57-27.3 143.07-27.3 143.07-22.65Q144.37-25.15 146.82-26.48 149.27-27.8 152.37-27.8L152.37-27.8ZM175.61-32.45Q174.56-32.45 173.81-33.2 173.06-33.95 173.06-35.05L173.06-35.05Q173.06-36.15 173.81-36.88 174.56-37.6 175.61-37.6L175.61-37.6Q176.66-37.6 177.41-36.88 178.16-36.15 178.16-35.05L178.16-35.05Q178.16-33.95 177.41-33.2 176.66-32.45 175.61-32.45L175.61-32.45ZM173.86-27.3L177.36-27.3 177.36 0 173.86 0 173.86-27.3ZM203.86-24.4L189.81-2.9 204.11-2.9 204.11 0 185.81 0 185.81-2.9 199.86-24.4 186.06-24.4 186.06-27.3 203.86-27.3 203.86-24.4ZM237.35-15.05Q237.35-13.25 237.25-12.3L237.25-12.3 214.6-12.3Q214.75-9.2 216.1-7 217.45-4.8 219.65-3.68 221.85-2.55 224.45-2.55L224.45-2.55Q227.85-2.55 230.17-4.2 232.5-5.85 233.25-8.65L233.25-8.65 236.95-8.65Q235.95-4.65 232.67-2.13 229.4 0.4 224.45 0.4L224.45 0.4Q220.6 0.4 217.55-1.33 214.5-3.05 212.77-6.23 211.05-9.4 211.05-13.65L211.05-13.65Q211.05-17.9 212.75-21.1 214.45-24.3 217.5-26 220.55-27.7 224.45-27.7L224.45-27.7Q228.35-27.7 231.27-26 234.2-24.3 235.77-21.43 237.35-18.55 237.35-15.05L237.35-15.05ZM233.8-15.15Q233.85-18.2 232.57-20.35 231.3-22.5 229.1-23.6 226.9-24.7 224.3-24.7L224.3-24.7Q220.4-24.7 217.65-22.2 214.9-19.7 214.6-15.15L214.6-15.15 233.8-15.15ZM245.69-5.8L249.59-5.8 244.39 7.3 241.99 7.3 245.69-5.8ZM277.48-21.25Q278.83-24.1 281.65-25.9 284.48-27.7 288.33-27.7L288.33-27.7Q292.08-27.7 295.03-25.98 297.98-24.25 299.65-21.08 301.33-17.9 301.33-13.7L301.33-13.7Q301.33-9.5 299.65-6.3 297.98-3.1 295-1.35 292.03 0.4 288.33 0.4L288.33 0.4Q284.43 0.4 281.6-1.38 278.78-3.15 277.48-6L277.48-6 277.48 0 274.03 0 274.03-37 277.48-37 277.48-21.25ZM297.78-13.7Q297.78-17.1 296.45-19.58 295.13-22.05 292.83-23.35 290.53-24.65 287.63-24.65L287.63-24.65Q284.83-24.65 282.5-23.3 280.18-21.95 278.83-19.45 277.48-16.95 277.48-13.65L277.48-13.65Q277.48-10.35 278.83-7.85 280.18-5.35 282.5-4 284.83-2.65 287.63-2.65L287.63-2.65Q290.53-2.65 292.83-3.98 295.13-5.3 296.45-7.83 297.78-10.35 297.78-13.7L297.78-13.7ZM335.12-15.05Q335.12-13.25 335.02-12.3L335.02-12.3 312.37-12.3Q312.52-9.2 313.87-7 315.22-4.8 317.42-3.68 319.62-2.55 322.22-2.55L322.22-2.55Q325.62-2.55 327.94-4.2 330.27-5.85 331.02-8.65L331.02-8.65 334.72-8.65Q333.72-4.65 330.44-2.13 327.17 0.4 322.22 0.4L322.22 0.4Q318.37 0.4 315.32-1.33 312.27-3.05 310.54-6.23 308.82-9.4 308.82-13.65L308.82-13.65Q308.82-17.9 310.52-21.1 312.22-24.3 315.27-26 318.32-27.7 322.22-27.7L322.22-27.7Q326.12-27.7 329.04-26 331.97-24.3 333.54-21.43 335.12-18.55 335.12-15.05L335.12-15.05ZM331.57-15.15Q331.62-18.2 330.34-20.35 329.07-22.5 326.87-23.6 324.67-24.7 322.07-24.7L322.07-24.7Q318.17-24.7 315.42-22.2 312.67-19.7 312.37-15.15L312.37-15.15 331.57-15.15ZM363.95-21.3Q365.25-24.05 368.08-25.88 370.9-27.7 374.8-27.7L374.8-27.7Q378.5-27.7 381.48-25.98 384.45-24.25 386.13-21.08 387.8-17.9 387.8-13.7L387.8-13.7Q387.8-9.5 386.13-6.3 384.45-3.1 381.48-1.35 378.5 0.4 374.8 0.4L374.8 0.4Q370.95 0.4 368.1-1.43 365.25-3.25 363.95-6L363.95-6 363.95 12.9 360.5 12.9 360.5-27.3 363.95-27.3 363.95-21.3ZM384.25-13.7Q384.25-17.1 382.93-19.58 381.6-22.05 379.3-23.35 377-24.65 374.1-24.65L374.1-24.65Q371.3-24.65 368.98-23.3 366.65-21.95 365.3-19.45 363.95-16.95 363.95-13.65L363.95-13.65Q363.95-10.35 365.3-7.85 366.65-5.35 368.98-4 371.3-2.65 374.1-2.65L374.1-2.65Q377-2.65 379.3-3.98 381.6-5.3 382.93-7.83 384.25-10.35 384.25-13.7L384.25-13.7ZM400.4-22.45Q401.55-25 403.92-26.4 406.3-27.8 409.75-27.8L409.75-27.8 409.75-24.15 408.8-24.15Q405-24.15 402.7-22.1 400.4-20.05 400.4-15.25L400.4-15.25 400.4 0 396.9 0 396.9-27.3 400.4-27.3 400.4-22.45ZM429.59 0.4Q425.74 0.4 422.66-1.33 419.59-3.05 417.81-6.23 416.04-9.4 416.04-13.65L416.04-13.65Q416.04-17.9 417.84-21.08 419.64-24.25 422.74-25.98 425.84-27.7 429.69-27.7L429.69-27.7Q433.54-27.7 436.66-25.98 439.79-24.25 441.56-21.08 443.34-17.9 443.34-13.65L443.34-13.65Q443.34-9.45 441.54-6.25 439.74-3.05 436.59-1.33 433.44 0.4 429.59 0.4L429.59 0.4ZM429.59-2.65Q432.29-2.65 434.59-3.88 436.89-5.1 438.31-7.58 439.74-10.05 439.74-13.65L439.74-13.65Q439.74-17.25 438.34-19.73 436.94-22.2 434.64-23.43 432.34-24.65 429.64-24.65L429.64-24.65Q426.94-24.65 424.64-23.43 422.34-22.2 420.96-19.73 419.59-17.25 419.59-13.65L419.59-13.65Q419.59-10.05 420.96-7.58 422.34-5.1 424.61-3.88 426.89-2.65 429.59-2.65L429.59-2.65ZM450.78-13.7Q450.78-17.9 452.48-21.08 454.18-24.25 457.16-25.98 460.13-27.7 463.88-27.7L463.88-27.7Q467.48-27.7 470.38-25.95 473.28-24.2 474.63-21.4L474.63-21.4 474.63-37 478.13-37 478.13 0 474.63 0 474.63-6.1Q473.38-3.25 470.53-1.43 467.68 0.4 463.83 0.4L463.83 0.4Q460.08 0.4 457.11-1.35 454.13-3.1 452.46-6.3 450.78-9.5 450.78-13.7L450.78-13.7ZM474.63-13.65Q474.63-16.95 473.28-19.45 471.93-21.95 469.61-23.3 467.28-24.65 464.48-24.65L464.48-24.65Q461.58-24.65 459.28-23.35 456.98-22.05 455.66-19.58 454.33-17.1 454.33-13.7L454.33-13.7Q454.33-10.35 455.66-7.83 456.98-5.3 459.28-3.98 461.58-2.65 464.48-2.65L464.48-2.65Q467.28-2.65 469.61-4 471.93-5.35 473.28-7.85 474.63-10.35 474.63-13.65L474.63-13.65ZM508.92-27.3L512.42-27.3 512.42 0 508.92 0 508.92-4.8Q507.72-2.25 505.22-0.9 502.72 0.45 499.62 0.45L499.62 0.45Q494.72 0.45 491.62-2.58 488.52-5.6 488.52-11.35L488.52-11.35 488.52-27.3 491.97-27.3 491.97-11.75Q491.97-7.3 494.2-4.95 496.42-2.6 500.27-2.6L500.27-2.6Q504.22-2.6 506.57-5.1 508.92-7.6 508.92-12.45L508.92-12.45 508.92-27.3ZM521.47-13.65Q521.47-17.9 523.17-21.08 524.87-24.25 527.87-25.98 530.87-27.7 534.72-27.7L534.72-27.7Q539.77-27.7 543.04-25.2 546.32-22.7 547.27-18.4L547.27-18.4 543.52-18.4Q542.82-21.35 540.49-23.03 538.17-24.7 534.72-24.7L534.72-24.7Q531.97-24.7 529.77-23.45 527.57-22.2 526.29-19.73 525.02-17.25 525.02-13.65L525.02-13.65Q525.02-10.05 526.29-7.55 527.57-5.05 529.77-3.8 531.97-2.55 534.72-2.55L534.72-2.55Q538.17-2.55 540.49-4.23 542.82-5.9 543.52-8.9L543.52-8.9 547.27-8.9Q546.32-4.7 543.02-2.15 539.72 0.4 534.72 0.4L534.72 0.4Q530.87 0.4 527.87-1.33 524.87-3.05 523.17-6.23 521.47-9.4 521.47-13.65L521.47-13.65ZM568.41-24.35L560.91-24.35 560.91-7.4Q560.91-4.9 561.86-3.95 562.81-3 565.21-3L565.21-3 568.41-3 568.41 0 564.66 0Q560.96 0 559.16-1.73 557.36-3.45 557.36-7.4L557.36-7.4 557.36-24.35 553.56-24.35 553.56-27.3 557.36-27.3 557.36-34.15 560.91-34.15 560.91-27.3 568.41-27.3 568.41-24.35ZM578.55-32.45Q577.5-32.45 576.75-33.2 576-33.95 576-35.05L576-35.05Q576-36.15 576.75-36.88 577.5-37.6 578.55-37.6L578.55-37.6Q579.6-37.6 580.35-36.88 581.1-36.15 581.1-35.05L581.1-35.05Q581.1-33.95 580.35-33.2 579.6-32.45 578.55-32.45L578.55-32.45ZM576.8-27.3L580.3-27.3 580.3 0 576.8 0 576.8-27.3ZM591.39-27.3L600.59-3.4 609.79-27.3 613.49-27.3 602.54 0 598.59 0 587.64-27.3 591.39-27.3ZM645.59-15.05Q645.59-13.25 645.49-12.3L645.49-12.3 622.84-12.3Q622.99-9.2 624.34-7 625.69-4.8 627.89-3.68 630.09-2.55 632.69-2.55L632.69-2.55Q636.09-2.55 638.41-4.2 640.74-5.85 641.49-8.65L641.49-8.65 645.19-8.65Q644.19-4.65 640.91-2.13 637.64 0.4 632.69 0.4L632.69 0.4Q628.84 0.4 625.79-1.33 622.74-3.05 621.01-6.23 619.29-9.4 619.29-13.65L619.29-13.65Q619.29-17.9 620.99-21.1 622.69-24.3 625.74-26 628.79-27.7 632.69-27.7L632.69-27.7Q636.59-27.7 639.51-26 642.44-24.3 644.01-21.43 645.59-18.55 645.59-15.05L645.59-15.05ZM642.04-15.15Q642.09-18.2 640.81-20.35 639.54-22.5 637.34-23.6 635.14-24.7 632.54-24.7L632.54-24.7Q628.64-24.7 625.89-22.2 623.14-19.7 622.84-15.15L622.84-15.15 642.04-15.15Z" opacity="1" transform="matrix(1,0,0,1,0,0)" fill="#81ffd9" class="undefined-text-1" data-fill-palette-color="secondary" id="text-1"></path></svg></g></svg></g></svg></g></svg></g><g></g></svg></g></svg></g></svg></g></svg></g><defs></defs></svg><rect width="395.52" height="247.2" fill="none" stroke="none" visibility="hidden"></rect></g></svg></g></svg>