<svg xmlns="http://www.w3.org/2000/svg" version="1.1" xmlns:xlink="http://www.w3.org/1999/xlink" xmlns:svgjs="http://svgjs.dev/svgjs" width="1000" height="1000" viewBox="0 0 1000 1000"><rect width="1000" height="1000" fill="#ffffff"></rect><g transform="matrix(0.7,0,0,0.7,150.11040952937793,109.75)"><svg viewBox="0 0 251 280" data-background-color="#ffffff" preserveAspectRatio="xMidYMid meet" height="1115" width="1000" xmlns="http://www.w3.org/2000/svg" xmlns:xlink="http://www.w3.org/1999/xlink"><g id="tight-bounds" transform="matrix(1,0,0,1,-0.039589702676948946,0)"><svg viewBox="0 0 251.07917940535393 280" height="280" width="251.07917940535393"><g><svg viewBox="0 0 278.2696 310.3223779229006" height="280" width="251.07917940535393"><g><svg viewBox="0 0 278.2696 310.3223779229006" height="310.3223779229006" width="278.2696"><g id="textblocktransform"><svg viewBox="0 0 278.2696 310.3223779229006" height="310.3223779229006" width="278.2696" id="textblock"><g><svg viewBox="0 0 278.2696 278.2696" height="278.2696" width="278.2696"><g transform="matrix(1,0,0,1,97.87840664659593,89.94321971048298)"><svg viewBox="0 0 82.51278670680816 98.38316057903407" height="98.38316057903407" width="82.51278670680816"><g><svg xmlns="http://www.w3.org/2000/svg" xmlns:xlink="http://www.w3.org/1999/xlink" version="1.1" x="0" y="0" viewBox="19.5 8.896998405456543 69.6916275024414 83.09600067138672" enable-background="new 0 0 100 100" xml:space="preserve" height="98.38316057903407" width="82.51278670680816" class="icon-o-0" data-fill-palette-color="accent" id="o-0"><g fill="#1ebbd7" data-fill-palette-color="accent"><g fill="#1ebbd7" data-fill-palette-color="accent"><rect x="75.645" y="50.364" transform="matrix(-0.7072 -0.7071 0.7071 -0.7072 101.3561 144.7075)" fill-rule="evenodd" clip-rule="evenodd" width="10" height="2" fill="#000000" data-fill-palette-color="accent"></rect></g><g fill="#1ebbd7" data-fill-palette-color="accent"><path fill-rule="evenodd" clip-rule="evenodd" d="M62.496 66.626c-0.777 0.778-0.777 2.051 0 2.829l0.059 0.059c0.777 0.777 2.051 0.777 2.828 0l2.652-2.652 11.137-11.137 1.414-1.414-1.414-1.414-0.059-0.059-1.414-1.414-1.414 1.414L62.496 66.626z" fill="#000000" data-fill-palette-color="accent"></path></g><g fill="#1ebbd7" data-fill-palette-color="accent"><path fill-rule="evenodd" clip-rule="evenodd" d="M81.941 55.665L81.941 55.665l-0.707-0.707-0.707 0.707L68.683 67.51l-3.358 3.358c-0.277 0.277-0.348 0.679-0.229 1.028l-3.737 1.106-2.381-2.381 1.1-3.715c0.357 0.136 0.778 0.063 1.064-0.223l3.359-3.358 0 0 12.551-12.551-0.707-0.707-0.029-0.03c-0.001-0.001-0.002-0.001-0.003-0.002l-0.705-0.705L63.056 61.882l0 0-3.358 3.359c-0.031 0.031-0.044 0.072-0.07 0.106-0.099 0.062-0.179 0.155-0.214 0.275l-2.657 8.979c-0.052 0.176-0.004 0.365 0.126 0.495s0.319 0.179 0.495 0.126l8.979-2.657c0.02-0.006 0.031-0.021 0.049-0.029 0.132-0.048 0.257-0.119 0.362-0.225l3.359-3.359 11.844-11.844 0.707-0.707-0.722-0.723L81.941 55.665z" fill="#000000" data-fill-palette-color="accent"></path></g><g fill="#1ebbd7" data-fill-palette-color="accent"><path fill-rule="evenodd" clip-rule="evenodd" d="M88.608 47.644l-4.243-4.242c-0.777-0.778-2.051-0.778-2.828 0l-1.696 1.695c-0.001 0.001-0.002 0.002-0.003 0.003l-1.411 1.411 1.414 1.414 4.243 4.243 1.414 1.414 1.414-1.414 0.848-0.848 0.849-0.849C89.386 49.694 89.386 48.421 88.608 47.644z" fill="#000000" data-fill-palette-color="accent"></path></g></g><g fill="#1ebbd7" data-fill-palette-color="accent"><g fill="#1ebbd7" data-fill-palette-color="accent"><g fill="#1ebbd7" data-fill-palette-color="accent"><path d="M80.5 39.65V24.088c0.009-0.063 0.02-0.127 0.02-0.193 0-0.488-0.233-0.923-0.595-1.196l-8.879-8.878-4.484-4.485c-0.096-0.096-0.205-0.171-0.321-0.236-0.025-0.016-0.052-0.029-0.079-0.043-0.204-0.101-0.428-0.16-0.66-0.16H23c-1.93 0-3.5 1.57-3.5 3.5v76.096c0 1.93 1.57 3.5 3.5 3.5h54c1.93 0 3.5-1.57 3.5-3.5v-25.12l-3 3v22.12c0 0.271-0.229 0.5-0.5 0.5H23c-0.271 0-0.5-0.229-0.5-0.5V12.396c0-0.271 0.229-0.5 0.5-0.5h41.001v9.999c0 1.93 1.57 3.5 3.5 3.5H77.5V42.65L80.5 39.65zM67.001 21.895v-7.877l2.39 2.389 5.986 5.988h-7.876C67.229 22.395 67.001 22.166 67.001 21.895z" fill="#000000" data-fill-palette-color="accent"></path></g></g><g fill="#1ebbd7" data-fill-palette-color="accent"><g fill="#1ebbd7" data-fill-palette-color="accent"><path d="M38.083 25.836h20.296c1.483 0 2.687-1.203 2.687-2.687s-1.204-2.687-2.687-2.687H38.083c-1.484 0-2.687 1.203-2.687 2.687S36.599 25.836 38.083 25.836z" fill="#000000" data-fill-palette-color="accent"></path></g></g><g fill="#1ebbd7" data-fill-palette-color="accent"><g fill="#1ebbd7" data-fill-palette-color="accent"><path d="M61.065 58.073c0-1.483-1.204-2.687-2.687-2.687H38.083c-1.484 0-2.687 1.203-2.687 2.687s1.202 2.687 2.687 2.687h20.296C59.862 60.76 61.065 59.557 61.065 58.073z" fill="#000000" data-fill-palette-color="accent"></path></g></g><g fill="#1ebbd7" data-fill-palette-color="accent"><g fill="#1ebbd7" data-fill-palette-color="accent"><path d="M70.122 32.104H38.083c-1.484 0-2.687 1.203-2.687 2.687 0 1.482 1.202 2.687 2.687 2.687h32.039c1.483 0 2.687-1.204 2.687-2.687C72.808 33.308 71.604 32.104 70.122 32.104z" fill="#000000" data-fill-palette-color="accent"></path></g></g><g fill="#1ebbd7" data-fill-palette-color="accent"><g fill="#1ebbd7" data-fill-palette-color="accent"><path d="M72.808 46.432c0-1.482-1.204-2.687-2.687-2.687H38.083c-1.484 0-2.687 1.204-2.687 2.687 0 1.483 1.202 2.687 2.687 2.687h32.039C71.604 49.118 72.808 47.915 72.808 46.432z" fill="#000000" data-fill-palette-color="accent"></path></g></g><g fill="#1ebbd7" data-fill-palette-color="accent"><path d="M31.498 26.836h-5.373c-0.552 0-1-0.447-1-1v-5.373c0-0.553 0.448-1 1-1h5.373c0.552 0 1 0.447 1 1v5.373C32.498 26.389 32.05 26.836 31.498 26.836zM27.125 24.836h3.373v-3.373h-3.373V24.836z" fill="#000000" data-fill-palette-color="accent"></path></g><path d="M31.498 31.104h-5.373c-0.552 0-1 0.447-1 1v5.373c0 0.553 0.448 1 1 1h5.373c0.552 0 1-0.447 1-1v-5.373C32.498 31.552 32.05 31.104 31.498 31.104z" fill="#000000" data-fill-palette-color="accent"></path><g fill="#1ebbd7" data-fill-palette-color="accent"><path d="M31.498 50.118h-5.373c-0.552 0-1-0.447-1-1v-5.373c0-0.553 0.448-1 1-1h5.373c0.552 0 1 0.447 1 1v5.373C32.498 49.671 32.05 50.118 31.498 50.118zM27.125 48.118h3.373v-3.373h-3.373V48.118z" fill="#000000" data-fill-palette-color="accent"></path></g><path d="M31.498 54.387h-5.373c-0.552 0-1 0.447-1 1v5.373c0 0.553 0.448 1 1 1h5.373c0.552 0 1-0.447 1-1v-5.373C32.498 54.834 32.05 54.387 31.498 54.387z" fill="#000000" data-fill-palette-color="accent"></path></g></svg></g></svg></g><path d="M27.905 172.771l8.049-2.967 8.306 22.533-8.05 2.967-0.809-2.195 5.061-3.191-2.103-5.705-20.964 7.727 0.55 4.198-1.942 0.716-4.478-12.149 1.942-0.716 2.31 3.562 20.964-7.727-2.12-5.753-5.907 0.894zM49.764 224.31v0c-1.791 1.248-3.69 2.184-5.699 2.808-2.008 0.623-3.955 0.783-5.84 0.48v0c-1.568-0.242-3.018-0.832-4.352-1.771-1.334-0.939-2.602-2.271-3.804-3.996v0c-1.222-1.753-2.048-3.413-2.478-4.981-0.43-1.568-0.502-3.104-0.214-4.606v0c0.327-1.619 1.07-3.245 2.228-4.878 1.159-1.633 2.666-3.096 4.523-4.39v0c1.856-1.294 3.798-2.227 5.825-2.799 2.022-0.568 3.926-0.731 5.713-0.488v0c1.589 0.227 3.038 0.802 4.346 1.726 1.308 0.924 2.563 2.249 3.765 3.975v0c1.176 1.687 1.998 3.318 2.465 4.893 0.462 1.579 0.545 3.154 0.25 4.727v0c-0.334 1.842-1.106 3.553-2.317 5.134-1.215 1.575-2.686 2.964-4.411 4.166zM37.751 206.868v0c-1.687 1.176-3.079 2.377-4.174 3.601-1.095 1.225-1.874 2.394-2.335 3.508v0c-0.417 1.084-0.552 2.16-0.405 3.231 0.142 1.074 0.613 2.185 1.414 3.333v0c1.457 2.09 3.255 3.166 5.392 3.229v0c1.154 0.02 2.459-0.254 3.915-0.824 1.461-0.573 3.043-1.454 4.746-2.641v0c1.704-1.188 3.093-2.379 4.169-3.574 1.07-1.191 1.807-2.356 2.211-3.494v0c0.424-1.121 0.545-2.224 0.362-3.31-0.192-1.087-0.652-2.154-1.381-3.198v0c-0.728-1.045-1.54-1.826-2.434-2.344-0.9-0.513-1.868-0.789-2.905-0.826v0c-2.413-0.097-5.272 1.006-8.575 3.309zM67.722 225.357l-14.328 17.506 4.075 3.334c1.083 0.887 2.149 1.48 3.197 1.782 1.048 0.301 2.095 0.326 3.141 0.075v0c1.124-0.221 2.271-0.769 3.443-1.645 1.162-0.875 2.361-2.067 3.596-3.577v0c2.42-2.957 3.696-5.643 3.828-8.056v0c0.086-1.173-0.134-2.283-0.658-3.329-0.515-1.047-1.355-2.048-2.52-3.001v0zM61.976 219.806l1.311-1.602 10.744 8.793c2.999 2.454 4.641 5.209 4.927 8.264v0c0.155 1.738-0.092 3.517-0.74 5.335-0.652 1.824-1.636 3.539-2.951 5.147v0c-1.383 1.689-2.943 3.057-4.683 4.102-1.744 1.042-3.501 1.679-5.269 1.913v0c-3.107 0.381-6.218-0.704-9.335-3.255v0l-10.474-8.572 1.311-1.602 3.058 1.448 14.126-17.259zM105.86 259.506v0c-0.866 2.004-1.989 3.799-3.368 5.385-1.38 1.587-2.951 2.747-4.714 3.482v0c-1.46 0.619-3.004 0.881-4.632 0.784-1.628-0.096-3.407-0.562-5.338-1.396v0c-1.961-0.848-3.537-1.825-4.729-2.933-1.191-1.107-2.06-2.376-2.606-3.804v0c-0.574-1.549-0.797-3.323-0.671-5.321 0.126-1.998 0.638-4.036 1.536-6.112v0c0.898-2.077 2.058-3.892 3.481-5.446 1.42-1.547 2.954-2.688 4.601-3.421v0c1.471-0.644 3.005-0.916 4.604-0.819 1.598 0.098 3.363 0.564 5.293 1.399v0c1.888 0.816 3.445 1.771 4.671 2.865 1.223 1.1 2.123 2.396 2.7 3.888v0c0.686 1.742 0.929 3.604 0.731 5.585-0.205 1.979-0.724 3.933-1.559 5.864zM86.467 250.994v0c-0.816 1.888-1.368 3.641-1.655 5.259-0.287 1.618-0.334 3.022-0.139 4.211v0c0.215 1.141 0.667 2.128 1.355 2.961 0.686 0.838 1.671 1.535 2.956 2.09v0c2.339 1.011 4.434 0.98 6.285-0.092v0c0.992-0.59 1.957-1.51 2.895-2.76 0.94-1.256 1.822-2.837 2.646-4.743v0c0.824-1.906 1.379-3.65 1.665-5.233 0.284-1.576 0.297-2.954 0.042-4.135v0c-0.229-1.176-0.707-2.178-1.434-3.004-0.735-0.824-1.688-1.488-2.857-1.994v0c-1.169-0.505-2.27-0.743-3.303-0.712-1.035 0.037-2.003 0.312-2.905 0.826v0c-2.103 1.187-3.954 3.629-5.551 7.326zM121.918 251.061l-1.766 11.801 4.006 0.599c0.722 0.108 1.414 0.101 2.076-0.021 0.662-0.122 1.201-0.337 1.616-0.644v0c0.588-0.435 1.122-1.02 1.601-1.753 0.478-0.727 0.788-1.566 0.93-2.517v0c0.136-0.906 0.09-1.788-0.137-2.647-0.227-0.859-0.565-1.628-1.014-2.305v0c-0.349-0.495-0.826-0.912-1.433-1.251-0.606-0.346-1.279-0.574-2.02-0.685v0zM125.388 266.332v0l-5.629-0.842-1.178 7.864 3.541 1.355-0.306 2.047-11.536-1.726 0.306-2.047 3.369-0.321 3.302-22.058-3.127-1.293 0.306-2.047 13.543 2.027c1.207 0.181 2.289 0.507 3.245 0.979 0.949 0.471 1.701 1.05 2.256 1.736v0c0.786 0.936 1.358 2.001 1.716 3.195 0.358 1.194 0.445 2.408 0.26 3.642v0c-0.189 1.26-0.654 2.485-1.396 3.675-0.742 1.19-1.622 2.119-2.641 2.785v0c-0.766 0.543-1.673 0.893-2.723 1.052-1.05 0.158-2.153 0.151-3.308-0.023zM151.745 251.292l-3.975 1.163 1.938 22.379 9.796-0.849 0.737-6.836 2.915-0.253 0.817 9.44-22.339 1.934-0.178-2.063 3.578-1.129-1.924-22.22-3.719-0.497-0.178-2.062 12.354-1.07zM187.507 266.602l2.721-1.863-4.154-5.253-9.237 3.373 0.172 6.708 3.318-0.343 0.71 1.944-9.301 3.397-0.71-1.944 2.721-1.863-0.127-27.183 4.141-1.513 17.337 20.898 3.216-0.305 0.71 1.944-10.807 3.947zM176.665 247.358l-0.15 0.054 0.256 12.653 7.591-2.772zM205.386 258.766l2.219-2.556-12.815-18.253-3.157 1.219-1.19-1.694 6.964-4.889 23.079 9.333-10.351-14.743-3.149 1.214-1.189-1.695 8.072-5.667 1.189 1.694-2.211 2.55 14.474 20.615-3.095 2.173-25.289-9.97 11.38 16.209 3.149-1.213 1.19 1.694-8.08 5.673zM235.746 235.074l1.392-3.084-17.515-13.807-2.674 2.075-1.626-1.282 5.267-6.683 24.787 2.316-14.147-11.151-2.668 2.066-1.626-1.281 6.105-7.746 1.626 1.281-1.386 3.077 19.783 15.593-2.341 2.97-27.087-2.291 15.554 12.26 2.668-2.066 1.626 1.281-6.112 7.754zM263.564 189.636l0.421-3.27-6.685-0.396-3.63 9.139 5.121 4.336 1.952-2.705 1.924 0.764-3.654 9.203-1.924-0.764 0.42-3.27-20.374-17.996 1.628-4.098 27.136 0.968 1.912-2.604 1.924 0.764-4.247 10.693zM241.985 184.922l-0.058 0.148 9.614 8.229 2.982-7.51z" fill="#000000" data-fill-palette-color="primary"></path><path d="M12.718 106.126L4.768 103.208 12.935 80.963 20.885 83.882 20.089 86.049 14.249 85.209 12.181 90.843 32.865 98.436 35.137 94.934 37.052 95.637 32.651 107.624 30.736 106.921 31.273 102.771 10.589 95.178 8.507 100.849 13.514 103.959ZM44.869 56.617V56.617C46.633 57.844 48.147 59.282 49.41 60.928 50.677 62.57 51.492 64.313 51.857 66.159V66.159C52.165 67.691 52.116 69.237 51.709 70.797 51.297 72.353 50.498 73.984 49.312 75.688V75.688C48.111 77.415 46.855 78.744 45.544 79.675 44.239 80.609 42.846 81.2 41.365 81.447V81.447C39.752 81.698 37.991 81.568 36.083 81.057 34.179 80.541 32.312 79.646 30.483 78.373V78.373C28.647 77.096 27.119 75.62 25.899 73.947 24.678 72.264 23.873 70.557 23.486 68.825V68.825C23.156 67.277 23.195 65.74 23.603 64.214 24.01 62.687 24.807 61.071 25.993 59.366V59.366C27.149 57.705 28.376 56.389 29.675 55.417 30.973 54.445 32.4 53.83 33.955 53.57V53.57C35.774 53.243 37.623 53.374 39.502 53.962 41.375 54.546 43.164 55.431 44.869 56.617ZM32.845 73.688V73.688C34.506 74.843 36.091 75.72 37.599 76.317 39.108 76.914 40.455 77.237 41.641 77.286V77.286C42.788 77.3 43.831 77.055 44.77 76.553 45.709 76.051 46.575 75.231 47.367 74.093V74.093C48.8 72.034 49.181 70.004 48.513 68.003V68.003C48.135 66.932 47.432 65.821 46.406 64.67 45.38 63.52 44.026 62.359 42.343 61.188V61.188C40.66 60.017 39.084 59.139 37.616 58.554 36.148 57.969 34.817 57.681 33.622 57.69V57.69C32.439 57.683 31.379 57.952 30.442 58.497 29.496 59.043 28.663 59.833 27.943 60.868V60.868C27.227 61.898 26.785 62.916 26.618 63.923 26.445 64.926 26.52 65.916 26.843 66.893V66.893C27.582 69.153 29.583 71.418 32.845 73.688ZM50.581 36.899L64.717 54.151 68.727 50.864C69.8 49.985 70.586 49.071 71.086 48.121 71.581 47.166 71.806 46.158 71.761 45.098V45.098C71.769 43.967 71.463 42.751 70.843 41.449 70.227 40.153 69.309 38.761 68.089 37.272V37.272C65.701 34.357 63.35 32.604 61.038 32.011V32.011C59.923 31.698 58.807 31.691 57.688 31.99 56.578 32.29 55.449 32.911 54.299 33.853V33.853ZM44.091 41.368L42.798 39.79 53.39 31.11C56.347 28.688 59.332 27.636 62.346 27.954V27.954C64.052 28.143 65.725 28.728 67.362 29.711 68.999 30.694 70.468 31.978 71.767 33.564V33.564C73.13 35.227 74.144 37.004 74.809 38.894 75.484 40.786 75.761 42.609 75.638 44.365V44.365C75.404 47.44 73.749 50.236 70.675 52.755V52.755L60.352 61.214 59.059 59.636 61.05 56.962 47.104 39.942ZM104.135 18.636V18.636C104.989 20.608 105.519 22.627 105.726 24.692 105.939 26.754 105.714 28.666 105.052 30.428V30.428C104.507 31.892 103.652 33.181 102.485 34.293 101.315 35.399 99.777 36.364 97.871 37.189V37.189C95.941 38.024 94.174 38.493 92.569 38.594 90.967 38.702 89.472 38.47 88.083 37.9V37.9C86.579 37.264 85.151 36.227 83.798 34.788 82.451 33.347 81.335 31.603 80.45 29.557V29.557C79.562 27.505 79.04 25.446 78.884 23.381 78.731 21.307 78.946 19.432 79.529 17.756V17.756C80.063 16.267 80.905 14.98 82.056 13.897 83.207 12.814 84.735 11.859 86.641 11.035V11.035C88.498 10.231 90.234 9.758 91.85 9.616 93.466 9.473 95.003 9.701 96.461 10.299V10.299C98.18 10.979 99.683 12.064 100.971 13.553 102.256 15.035 103.311 16.73 104.135 18.635ZM84.925 26.818V26.818C85.729 28.675 86.615 30.255 87.583 31.556 88.551 32.858 89.526 33.842 90.509 34.508V34.508C91.476 35.124 92.491 35.465 93.554 35.533 94.617 35.601 95.785 35.359 97.058 34.808V34.808C99.36 33.812 100.753 32.288 101.238 30.234V30.234C101.481 29.124 101.469 27.81 101.202 26.292 100.936 24.773 100.395 23.073 99.581 21.192V21.192C98.767 19.31 97.89 17.734 96.949 16.464 96.009 15.193 95.029 14.248 94.008 13.627V13.627C93.006 12.998 91.963 12.668 90.88 12.638 89.789 12.604 88.664 12.838 87.507 13.338V13.338C86.357 13.836 85.445 14.469 84.772 15.237 84.097 16 83.64 16.881 83.4 17.881V17.881C82.839 20.191 83.347 23.17 84.925 26.818ZM119.1 4.681L120.843 16.325 124.799 15.733C125.508 15.627 126.154 15.42 126.739 15.111 127.33 14.801 127.776 14.442 128.077 14.035V14.035C128.513 13.453 128.851 12.749 129.089 11.921 129.328 11.094 129.377 10.211 129.236 9.273V9.273C129.104 8.387 128.807 7.569 128.346 6.82 127.878 6.071 127.335 5.445 126.716 4.94V4.94C126.246 4.575 125.677 4.318 125.011 4.169 124.338 4.022 123.634 4.003 122.899 4.113V4.113ZM126.781 18.083V18.083L121.23 18.914 122.391 26.67 126.122 26.927 126.424 28.944 115.046 30.647 114.744 28.629 117.824 27.353 114.567 5.591 111.249 5.273 110.947 3.255 124.303 1.256C125.491 1.078 126.604 1.076 127.643 1.249 128.681 1.416 129.559 1.744 130.276 2.234V2.234C131.286 2.888 132.133 3.727 132.816 4.752 133.5 5.777 133.932 6.896 134.114 8.11V8.11C134.301 9.357 134.215 10.648 133.858 11.982 133.501 13.317 132.939 14.445 132.171 15.365V15.365C131.603 16.1 130.85 16.693 129.911 17.142 128.966 17.599 127.923 17.912 126.781 18.083ZM156.011 3.097L151.955 3.552 150.026 25.622 159.683 26.465 161.561 19.956 164.436 20.207 163.622 29.517 141.592 27.592 141.77 25.56 145.439 25.071 147.354 3.15 143.826 2.032 144.003 0 156.188 1.065ZM183.385 34.228L186.624 34.557 186.829 27.954 177.728 24.618 173.58 29.775 176.302 31.631 175.6 33.547 166.424 30.183 167.126 28.267 170.365 28.596 187.58 8.036 191.654 9.53 191.427 36.317 194.037 38.133 193.335 40.048 182.683 36.143ZM187.457 12.825L187.317 12.773 179.461 22.465 186.936 25.205ZM197.585 40.186L200.693 41.39 213.366 23.401 211.186 20.879 212.361 19.211 219.22 24.043 218.254 48.587 228.491 34.056 226.311 31.535 227.486 29.867 235.443 35.472 234.268 37.14 231.16 35.936 216.848 56.252 213.797 54.103 214.613 27.299 203.362 43.27 205.542 45.792 204.367 47.46 196.41 41.854ZM224.343 60.612L226.975 62.657 244.278 49.064 242.914 46.022 244.518 44.762 249.701 51.359 241.73 74.593 255.708 63.612 254.343 60.571 255.948 59.31 261.961 66.964 260.356 68.225 257.724 66.179 238.183 81.531 235.877 78.597 244.354 53.155 228.991 65.224 230.356 68.266 228.751 69.526 222.738 61.872ZM249.559 101.733L251.468 104.371 256.535 100.132 252.973 91.117 246.362 91.45 246.787 94.717 244.889 95.467 241.297 86.378 243.195 85.628 245.104 88.266 271.907 87.444 273.502 91.479 253.349 109.128 253.729 112.284 251.832 113.034 247.662 102.483ZM268.25 90.537L268.195 90.398 255.732 90.979 258.659 98.383Z" fill="#000000" data-fill-palette-color="primary"></path><path d="M4.337 142.514c0-5.923 4.802-10.725 10.725-10.725 5.923 0 10.725 4.802 10.725 10.725 0 5.923-4.802 10.725-10.725 10.725-5.923 0-10.725-4.802-10.725-10.725zM253.589 142.514c0-5.923 4.802-10.725 10.725-10.725 5.923 0 10.725 4.802 10.725 10.725 0 5.923-4.802 10.725-10.725 10.725-5.923 0-10.725-4.802-10.725-10.725z" fill="#000000" data-fill-palette-color="primary"></path></svg></g><g transform="matrix(1,0,0,1,53.1494936,295.46666128000004)"><svg viewBox="0 0 171.97061280000003 14.8557166429006" height="14.8557166429006" width="171.97061280000003"><g transform="matrix(1,0,0,1,0,0)"><svg width="171.97061280000003" viewBox="2.759999990463257 -31.610000610351562 472.29998779296875 40.810001373291016" height="14.8557166429006" data-palette-color="#4b91f1"><path d="M7.61-20.2Q7.07-17.82 7.07-15.55 7.07-13.28 7.61-10.86 8.16-8.45 9.48-6.64 10.8-4.83 12.76-3.74 14.71-2.64 17.53-2.64 20.34-2.64 22.36-3.74 24.37-4.83 25.63-6.64 26.9-8.45 27.5-10.86 28.1-13.28 28.1-15.55 28.1-17.82 27.5-20.2 26.9-22.59 25.63-24.4 24.37-26.21 22.36-27.3 20.34-28.39 17.53-28.39 14.71-28.39 12.76-27.3 10.8-26.21 9.48-24.4 8.16-22.59 7.61-20.2ZM2.76-15.63L2.76-15.63Q2.76-18.97 3.74-21.95 4.71-24.94 6.67-27.07L6.67-27.07Q10.57-31.55 17.47-31.61L17.47-31.61Q24.48-31.61 28.45-27.07L28.45-27.07Q30.34-24.94 31.29-21.95 32.24-18.97 32.24-15.63L32.24-15.63Q32.24-12.24 31.29-9.17 30.34-6.09 28.45-4.02L28.45-4.02Q24.48 0.46 17.47 0.46L17.47 0.46Q10.52 0.46 6.67-4.02L6.67-4.02Q4.71-6.21 3.74-9.22 2.76-12.24 2.76-15.63ZM41.89-20.11L41.89-18.16Q43.27-22.24 47.93-22.24L47.93-22.24Q48.79-22.24 49.22-21.75 49.65-21.26 49.65-20.72 49.65-20.17 49.22-19.68 48.79-19.2 47.64-19.2 46.49-19.2 45.34-18.74 44.19-18.28 43.45-17.41L43.45-17.41Q41.89-15.52 41.89-12.41L41.89-12.41 41.89-1.61Q41.89-0.8 41.32-0.4 40.74 0 40.28 0 39.83 0 39.54-0.09 39.25-0.17 38.96-0.46L38.96-0.46Q38.45-0.8 38.45-1.61L38.45-1.61 38.45-20.11Q38.45-20.86 38.96-21.35 39.48-21.84 40.26-21.84 41.03-21.84 41.46-21.35 41.89-20.86 41.89-20.11L41.89-20.11ZM62.7-19.48L62.7-19.48Q56.26-19.48 56.26-10.92L56.26-10.92Q56.26-6.9 58.27-4.6L58.27-4.6Q60-2.59 62.75-2.53L62.75-2.53Q65.57-2.53 67.52-4.66L67.52-4.66Q69.59-6.9 69.59-10.8L69.59-10.8Q69.59-16.67 65.91-18.74L65.91-18.74Q64.65-19.48 62.7-19.48ZM61.78-22.24L61.78-22.24Q67.41-22.24 69.71-17.93L69.71-17.93 69.71-20.34Q69.82-21.03 70.28-21.44 70.74-21.84 71.37-21.84 72.01-21.84 72.52-21.38 73.04-20.92 73.04-20.17L73.04-20.17 73.04 0.46Q73.04 4.94 70.17 7.13L70.17 7.13Q67.58 9.2 62.7 9.2L62.7 9.2Q58.33 9.2 56.14 7.7L56.14 7.7Q54.42 6.44 54.42 5.63L54.42 5.63Q54.42 5.06 54.79 4.68 55.17 4.31 55.66 4.31 56.14 4.31 56.6 4.63 57.06 4.94 57.7 5.23 58.33 5.52 58.96 5.75L58.96 5.75Q60.63 6.32 62.38 6.32 64.13 6.32 65.43 6.03 66.72 5.75 67.64 5.06L67.64 5.06Q69.59 3.79 69.59 0.69L69.59 0.69 69.59-4.31Q67.93-1.15 64.31-0.23L64.31-0.23Q63.16 0 62.06 0L62.06 0Q57.29 0 54.77-3.28L54.77-3.28Q52.41-6.21 52.41-10.8L52.41-10.8Q52.41-15.69 54.77-18.79L54.77-18.79Q57.24-22.24 61.78-22.24ZM89.71-13.28L89.71-13.28Q90.91-13.28 92.12-13.22L92.12-13.22 92.12-15.06Q92.12-19.54 87.12-19.54L87.12-19.54Q84.88-19.54 83.84-19.14L83.84-19.14Q82-18.45 81.2-17.96 80.39-17.47 79.94-17.47 79.48-17.47 79.07-17.82 78.67-18.16 78.67-18.74L78.67-18.74Q78.67-19.2 79.19-19.66L79.19-19.66Q81.89-22.24 87.18-22.24L87.18-22.24Q93.27-22.24 94.99-18.16L94.99-18.16Q95.57-16.72 95.57-14.83L95.57-14.83 95.45-1.55Q95.45-0.8 94.94-0.4 94.42 0 93.79 0 93.15 0 92.64-0.34 92.12-0.69 92.12-1.49L92.12-1.49 92.12-3.56Q90.74-0.57 87.18 0.17L87.18 0.17Q86.08 0.46 84.71 0.46 83.33 0.46 81.98 0.06 80.62-0.34 79.59-1.21L79.59-1.21Q77.46-2.99 77.46-6.03L77.46-6.03Q77.46-13.28 89.71-13.28ZM92.12-8.74L92.12-10.69Q91.2-10.57 89.99-10.57 88.79-10.57 87.52-10.55 86.26-10.52 85.11-10.26 83.96-10 83.04-9.48L83.04-9.48Q81.08-8.45 80.97-6.09L80.97-6.09Q80.97-4.25 82.46-3.22L82.46-3.22Q83.61-2.3 85.74-2.24L85.74-2.24Q88.33-2.24 90.22-3.91L90.22-3.91Q91.95-5.52 92.12-8.74L92.12-8.74ZM102.17-1.61L102.17-20.17Q102.17-20.92 102.75-21.38 103.32-21.84 103.9-21.84L103.9-21.84Q105.1-21.84 105.45-20.92 105.79-20 105.62-18.16L105.62-18.16Q106.31-19.89 108.61-21.15L108.61-21.15Q110.62-22.24 112.6-22.24 114.59-22.24 115.97-21.75 117.35-21.26 118.5-20.23L118.5-20.23Q120.79-18.05 120.79-13.79L120.79-13.79 120.79-1.61Q120.79-0.8 120.19-0.4 119.59 0 118.96 0L118.96 0Q118.27 0 117.75-0.43 117.23-0.86 117.23-1.61L117.23-1.61 117.23-14.02Q117.23-16.72 115.74-18.16L115.74-18.16Q114.36-19.54 112.29-19.54L112.29-19.54Q109.53-19.54 107.58-17.93L107.58-17.93Q105.62-16.21 105.62-12.64L105.62-12.64 105.62-1.61Q105.62-0.8 105.05-0.4 104.47 0 103.78 0L103.78 0Q103.09 0 102.63-0.43 102.17-0.86 102.17-1.61L102.17-1.61ZM131.65-29.43L131.65-29.43Q131.65-28.51 131.02-27.93 130.39-27.36 129.24-27.36 128.09-27.36 127.46-27.93 126.83-28.51 126.83-29.43L126.83-29.43Q126.83-30.23 127.46-30.8 128.09-31.38 129.27-31.38 130.45-31.38 131.05-30.8 131.65-30.23 131.65-29.43ZM127.52-1.72L127.52-20Q127.52-20.86 128.09-21.35 128.67-21.84 129.13-21.84 129.59-21.84 129.87-21.7 130.16-21.55 130.45-21.26L130.45-21.26Q131.08-20.86 131.08-20L131.08-20 131.08-1.72Q131.08-0.86 130.5-0.43 129.93 0 129.24 0L129.24 0Q128.55 0 128.03-0.43 127.52-0.86 127.52-1.72L127.52-1.72ZM140.62-2.93L151.65-2.93Q152.34-2.93 152.74-2.44 153.15-1.95 153.15-1.49L153.15-1.49Q153.15-0.86 152.8-0.43 152.46 0 151.65 0L151.65 0 138.03 0Q137.17 0 136.65-0.46 136.13-0.92 136.13-1.49L136.13-1.49Q136.13-2.41 136.59-2.99L136.59-2.99 149.01-18.85 137.86-18.85Q137.17-18.85 136.77-19.31 136.36-19.77 136.36-20.34L136.36-20.34Q136.36-20.92 136.71-21.38 137.05-21.84 137.86-21.84L137.86-21.84 151.31-21.84Q152.23-21.84 152.8-21.35 153.38-20.86 153.38-20.34L153.38-20.34Q153.38-19.48 152.86-18.74L152.86-18.74 140.62-2.93ZM177.68-11.55L177.68-11.55Q177.68-10.34 176.3-10.23L176.3-10.23 160.56-10.23Q160.79-4.37 165.15-2.64L165.15-2.64Q166.36-2.24 167.91-2.24L167.91-2.24Q171.13-2.24 174.47-4.6L174.47-4.6Q175.5-5.17 176.19-4.48L176.19-4.48Q176.53-4.14 176.42-3.79L176.42-3.79Q176.42-2.99 176.02-2.64L176.02-2.64Q172.86 0.52 167.68 0.46L167.68 0.46Q162.97 0.46 160.1-2.59L160.1-2.59Q156.88-5.75 156.88-10.92L156.88-10.92Q156.88-15.69 159.52-18.79L159.52-18.79Q162.28-22.24 167.34-22.24L167.34-22.24Q172.4-22.24 175.04-19.2L175.04-19.2Q177.57-16.44 177.68-11.55ZM160.67-12.59L174.29-12.59Q174.12-15.69 172.28-17.7L172.28-17.7Q170.56-19.54 167.34-19.54L167.34-19.54Q164.58-19.54 162.63-17.47L162.63-17.47Q160.84-15.4 160.67-12.59L160.67-12.59ZM188.43-4.02L185.15 5.29 182.05 5.29 184.12-4.02 188.43-4.02ZM218.31 0.46L218.31 0.46Q213.14 0.46 210.32-3.79L210.32-3.79 210.32-1.55Q210.26-0.8 209.77-0.4 209.29 0 208.62 0 207.96 0 207.45-0.43 206.93-0.86 206.93-1.61L206.93-1.61 206.93-29.66Q206.93-30.46 207.5-30.86 208.08-31.26 208.77-31.26L208.77-31.26Q209.46-31.26 209.98-30.89 210.49-30.52 210.49-29.66L210.49-29.66 210.49-18.28Q211.53-20.17 213.83-21.26L213.83-21.26Q215.78-22.24 218.22-22.24 220.66-22.24 222.42-21.29 224.17-20.34 225.2-18.79L225.2-18.79Q227.5-15.75 227.5-10.92L227.5-10.92Q227.5-6.21 225.32-3.1L225.32-3.1Q222.79 0.46 218.31 0.46ZM210.49-11.21L210.49-11.21Q210.49-9.48 210.84-7.79 211.18-6.09 212.04-4.94L212.04-4.94Q213.83-2.24 217.62-2.24L217.62-2.24Q221.87-2.24 223.25-7.07L223.25-7.07Q223.71-8.79 223.74-10.78 223.77-12.76 223.42-14.22 223.08-15.69 222.39-16.9L222.39-16.9Q220.66-19.54 217.27-19.54L217.27-19.54Q213.77-19.54 212.04-17.07L212.04-17.07Q210.49-14.94 210.49-11.21ZM252.16-11.55L252.16-11.55Q252.16-10.34 250.78-10.23L250.78-10.23 235.03-10.23Q235.26-4.37 239.63-2.64L239.63-2.64Q240.83-2.24 242.39-2.24L242.39-2.24Q245.6-2.24 248.94-4.6L248.94-4.6Q249.97-5.17 250.66-4.48L250.66-4.48Q251.01-4.14 250.89-3.79L250.89-3.79Q250.89-2.99 250.49-2.64L250.49-2.64Q247.33 0.52 242.16 0.46L242.16 0.46Q237.44 0.46 234.57-2.59L234.57-2.59Q231.35-5.75 231.35-10.92L231.35-10.92Q231.35-15.69 234-18.79L234-18.79Q236.75-22.24 241.81-22.24L241.81-22.24Q246.87-22.24 249.51-19.2L249.51-19.2Q252.04-16.44 252.16-11.55ZM235.14-12.59L248.77-12.59Q248.59-15.69 246.75-17.7L246.75-17.7Q245.03-19.54 241.81-19.54L241.81-19.54Q239.05-19.54 237.1-17.47L237.1-17.47Q235.32-15.4 235.14-12.59L235.14-12.59ZM272.21-18.1L272.21-18.1Q274.45-22.24 280.02-22.24L280.02-22.24Q284.62-22.24 287.04-18.74L287.04-18.74Q289.22-15.52 289.22-10.8L289.22-10.8Q289.22-5.98 286.92-2.93L286.92-2.93Q284.45 0.52 279.97 0.46L279.97 0.46Q276.17 0.46 273.76-1.84L273.76-1.84Q272.9-2.59 272.21-3.62L272.21-3.62 272.21 6.72Q272.21 7.59 271.63 7.99 271.06 8.39 270.48 8.39L270.48 8.39Q269.8 8.39 269.22 7.93 268.65 7.47 268.65 6.72L268.65 6.72 268.65-20.17Q268.65-21.03 269.16-21.44 269.68-21.84 270.66-21.84L270.66-21.84Q272.55-21.84 272.21-18.1ZM273.62-17.01Q272.78-15.86 272.5-14.25 272.21-12.64 272.21-10.89 272.21-9.14 272.61-7.61 273.01-6.09 273.82-4.83L273.82-4.83Q275.66-2.18 279.11-2.24L279.11-2.24Q282.44-2.24 284.16-5L284.16-5Q285.48-7.24 285.48-10.92L285.48-10.92Q285.48-16.72 282.21-18.74L282.21-18.74Q281-19.48 279.08-19.51 277.15-19.54 275.8-18.85 274.45-18.16 273.62-17.01ZM297.95-20.11L297.95-18.16Q299.33-22.24 303.99-22.24L303.99-22.24Q304.85-22.24 305.28-21.75 305.71-21.26 305.71-20.72 305.71-20.17 305.28-19.68 304.85-19.2 303.7-19.2 302.55-19.2 301.4-18.74 300.25-18.28 299.51-17.41L299.51-17.41Q297.95-15.52 297.95-12.41L297.95-12.41 297.95-1.61Q297.95-0.8 297.38-0.4 296.8 0 296.34 0 295.88 0 295.6-0.09 295.31-0.17 295.02-0.46L295.02-0.46Q294.51-0.8 294.51-1.61L294.51-1.61 294.51-20.11Q294.51-20.86 295.02-21.35 295.54-21.84 296.32-21.84 297.09-21.84 297.52-21.35 297.95-20.86 297.95-20.11L297.95-20.11ZM308.47-10.86L308.47-10.86Q308.47-12.93 309.13-15 309.79-17.07 311.17-18.74L311.17-18.74Q314.04-22.24 319.33-22.24 324.62-22.24 327.49-18.74L327.49-18.74Q330.19-15.4 330.19-10.92L330.19-10.92Q330.19-6.38 327.49-3.1L327.49-3.1Q324.62 0.46 319.33 0.46 314.04 0.46 311.17-3.1L311.17-3.1Q308.47-6.32 308.47-10.86ZM312.2-10.86L312.2-10.86Q312.2-9.48 312.58-7.93 312.95-6.38 313.93-5.06L313.93-5.06Q315.88-2.24 319.33-2.24L319.33-2.24Q322.95-2.24 324.73-5.06L324.73-5.06Q326.4-7.7 326.4-10.92L326.4-10.92Q326.4-14.25 324.73-16.67L324.73-16.67Q322.89-19.54 319.33-19.54L319.33-19.54Q315.88-19.54 313.93-16.67L313.93-16.67Q312.2-14.31 312.2-10.86ZM350.94-1.61L350.94-3.62Q348.06 0.46 343.12 0.46L343.12 0.46Q338.64 0.46 336.11-3.1L336.11-3.1Q333.93-6.32 333.93-10.92L333.93-10.92Q333.93-18.62 339.04-21.26L339.04-21.26Q340.76-22.24 342.52-22.24 344.27-22.24 345.42-22.04 346.57-21.84 347.6-21.26L347.6-21.26Q349.79-20.17 350.94-18.28L350.94-18.28 350.94-29.66Q350.94-30.52 351.51-30.89 352.09-31.26 352.78-31.26L352.78-31.26Q353.47-31.26 353.98-30.89 354.5-30.52 354.5-29.66L354.5-29.66 354.5-1.61Q354.5-0.8 353.93-0.4 353.35 0 352.89 0 352.43 0 352.12-0.09 351.8-0.17 351.51-0.46L351.51-0.46Q350.94-0.86 350.94-1.61L350.94-1.61ZM343.81-2.24L343.81-2.24Q350.82-2.24 350.82-11.26L350.82-11.26Q350.82-17.07 347.32-18.85L347.32-18.85Q345.99-19.54 344.16-19.54 342.32-19.54 341.11-18.82 339.9-18.1 339.1-16.9L339.1-16.9Q337.66-14.66 337.66-11.21L337.66-11.21Q337.66-6.09 340.07-3.68L340.07-3.68Q341.45-2.24 343.81-2.24ZM379.44-20.11L379.44-1.61Q379.44-0.8 378.84-0.4 378.23 0 377.8 0 377.37 0 377.03-0.09 376.68-0.17 376.45-0.46L376.45-0.46Q375.88-0.86 375.88-1.61L375.88-1.61 375.88-3.62Q374.5-0.57 370.82 0.17L370.82 0.17Q369.67 0.46 368.35 0.46 367.03 0.46 365.59 0 364.15-0.46 363.12-1.49L363.12-1.49Q360.82-3.68 360.82-8.05L360.82-8.05 360.82-20.11Q360.82-20.92 361.34-21.38 361.85-21.84 362.54-21.84L362.54-21.84Q363.23-21.84 363.75-21.38 364.27-20.92 364.27-20.11L364.27-20.11 364.27-7.76Q364.27-4.66 365.53-3.45L365.53-3.45Q366.8-2.24 369.33-2.24L369.33-2.24Q373.58-2.24 375.19-5.69L375.19-5.69Q375.82-6.9 375.88-8.45L375.88-8.45 375.88-20.11Q375.88-20.92 376.45-21.38 377.03-21.84 377.72-21.84L377.72-21.84Q378.41-21.84 378.92-21.38 379.44-20.92 379.44-20.11L379.44-20.11ZM384.67-10.92L384.67-10.92Q384.67-15.69 387.37-18.85L387.37-18.85Q390.3-22.24 395.01-22.24L395.01-22.24Q399.04-22.24 401.16-20.57L401.16-20.57Q401.79-20.11 401.79-19.48 401.79-18.85 401.45-18.48 401.1-18.1 400.64-18.1 400.18-18.1 399.96-18.28L399.96-18.28Q397.77-19.54 395.36-19.48L395.36-19.48Q392.2-19.48 390.41-17.13L390.41-17.13Q388.4-14.71 388.4-10.92L388.4-10.92Q388.4-7.41 389.84-5L389.84-5Q391.56-2.24 395.36-2.24L395.36-2.24Q397.43-2.24 400.41-3.68L400.41-3.68Q401.22-4.14 401.79-3.45L401.79-3.45Q402.14-3.1 402.14-2.5 402.14-1.9 401.39-1.29 400.64-0.69 399.61-0.34L399.61-0.34Q397.08 0.52 394.73 0.49 392.37 0.46 390.47-0.4 388.58-1.26 387.31-2.93L387.31-2.93Q384.67-6.09 384.67-10.92ZM418.92-1.26L418.92-1.26Q418.92 0.46 414.84 0.46L414.84 0.46Q411.79 0.46 410.53-1.21L410.53-1.21Q409.15-2.99 409.03-7.07L409.03-7.07 409.03-19.14 406.5-19.14Q405.81-19.14 405.41-19.57 405.01-20 405.01-20.46L405.01-20.46Q405.01-20.92 405.35-21.38 405.7-21.84 406.5-21.84L406.5-21.84 409.26-21.84 409.49-28.05Q409.61-28.74 410.12-29.11 410.64-29.48 411.22-29.48 411.79-29.48 412.19-29.14 412.6-28.79 412.6-28.05L412.6-28.05 412.6-21.84 416.56-21.84Q417.25-21.84 417.62-21.38 418-20.92 418-20.46L418-20.46Q418-19.89 417.62-19.51 417.25-19.14 416.56-19.14L416.56-19.14 412.6-19.14 412.6-8.97Q412.6-4.71 412.88-3.82 413.17-2.93 413.8-2.59 414.44-2.24 415.35-2.24L415.35-2.24 417.6-2.41Q418.23-2.41 418.57-2.01 418.92-1.61 418.92-1.26ZM426.96-29.43L426.96-29.43Q426.96-28.51 426.33-27.93 425.7-27.36 424.55-27.36 423.4-27.36 422.77-27.93 422.13-28.51 422.13-29.43L422.13-29.43Q422.13-30.23 422.77-30.8 423.4-31.38 424.58-31.38 425.75-31.38 426.36-30.8 426.96-30.23 426.96-29.43ZM422.82-1.72L422.82-20Q422.82-20.86 423.4-21.35 423.97-21.84 424.43-21.84 424.89-21.84 425.18-21.7 425.47-21.55 425.75-21.26L425.75-21.26Q426.39-20.86 426.39-20L426.39-20 426.39-1.72Q426.39-0.86 425.81-0.43 425.24 0 424.55 0L424.55 0Q423.86 0 423.34-0.43 422.82-0.86 422.82-1.72L422.82-1.72ZM450.98-19.54L444.2-2.64Q443.63-1.26 442.96-0.63 442.3 0 441.1 0L441.1 0Q439.89 0 439.23-0.6 438.57-1.21 438.11-2.64L438.11-2.64 430.92-19.54Q430.41-20.52 431.44-21.26L431.44-21.26Q432.02-21.72 432.59-21.84L432.59-21.84Q433.86-21.84 434.2-20.57L434.2-20.57 441.1-4.02 447.76-20.57Q448.17-21.72 449.26-21.84L449.26-21.84Q450.41-21.84 450.98-20.86L450.98-20.86Q451.21-20.52 451.15-20.2 451.1-19.89 450.98-19.54L450.98-19.54ZM475.06-11.55L475.06-11.55Q475.06-10.34 473.68-10.23L473.68-10.23 457.93-10.23Q458.16-4.37 462.53-2.64L462.53-2.64Q463.74-2.24 465.29-2.24L465.29-2.24Q468.51-2.24 471.84-4.6L471.84-4.6Q472.88-5.17 473.57-4.48L473.57-4.48Q473.91-4.14 473.8-3.79L473.8-3.79Q473.8-2.99 473.39-2.64L473.39-2.64Q470.23 0.52 465.06 0.46L465.06 0.46Q460.35 0.46 457.47-2.59L457.47-2.59Q454.26-5.75 454.26-10.92L454.26-10.92Q454.26-15.69 456.9-18.79L456.9-18.79Q459.66-22.24 464.72-22.24L464.72-22.24Q469.77-22.24 472.42-19.2L472.42-19.2Q474.95-16.44 475.06-11.55ZM458.05-12.59L471.67-12.59Q471.5-15.69 469.66-17.7L469.66-17.7Q467.93-19.54 464.72-19.54L464.72-19.54Q461.96-19.54 460-17.47L460-17.47Q458.22-15.4 458.05-12.59L458.05-12.59Z" opacity="1" transform="matrix(1,0,0,1,0,0)" fill="#000000" class="undefined-text-1" data-fill-palette-color="secondary" id="text-1"></path></svg></g></svg></g></svg></g></svg></g></svg></g><defs></defs></svg><rect width="251.07917940535393" height="280" fill="none" stroke="none" visibility="hidden"></rect></g></svg></g></svg>